<svg aria-hidden="true" style="position:absolute;width:0;height:0;overflow:hidden" xmlns="http://www.w3.org/2000/svg">
  <defs>
    <symbol id="logo" viewBox="0 0 107 32">
      <path fill="#ff6b0a" style="fill:var(--color1, #ff6b0a)" d="M106.667 0v32H59.536V0h47.131zM74.42 8.811v13.927l.001.044a.842.842 0 0 1-.001.087c-.007.08.015.128.107.115a.485.485 0 0 1 .066-.001l.033.001h3.582c.075.001.112.001.129-.017s.016-.051.014-.116l-.001-.078V8.83l-.001-.033a.485.485 0 0 1 .001-.066c.008-.082-.02-.125-.109-.115-.018.002-.036.001-.054.001l-.028-.001h-3.55l-.062-.001c-.065-.001-.098-.001-.114.015s-.016.049-.015.116l.001.064zm19.579-.194h-5.863c-1.954 0-3.908 0-5.86-.002h-.133c-.066-.003-.089.028-.084.089a.486.486 0 0 1 0 .054v3.398c0 .072-.001.107.017.124s.051.017.118.016H85.923c.12 0 .18 0 .209.03s.029.087.029.2v10.335c-.001.059-.001.09.014.106.017.018.052.017.127.017h3.571c.111 0 .166 0 .193-.028s.027-.08.027-.186V12.488l-.001-.059c-.001-.063-.001-.097.015-.114.018-.019.055-.018.133-.018h3.798c.162 0 .162 0 .164-.159V8.759c.001-.072.001-.108-.016-.126s-.053-.017-.123-.016L94 8.618z"/>
      <path fill="#010101" style="fill:var(--color2, #010101)" d="m47.132 0 12.403 16-12.403 16H0V0h47.132zm-26.38 13.662.215.174a.371.371 0 0 0 .106-.107.256.256 0 0 1 .02-.026c.254-.302.507-.606.76-.91.507-.606 1.012-1.212 1.518-1.82.101-.122.097-.177-.018-.276a12.617 12.617 0 0 0-.277-.233c-.803-.657-1.685-1.17-2.684-1.467a9.43 9.43 0 0 0-2.043-.353c-.905-.061-1.802-.031-2.691.174-3.112.716-5.434 3.292-5.707 6.594a7.795 7.795 0 0 0 .225 2.638c.519 1.96 1.645 3.461 3.434 4.45.975.539 2.03.823 3.14.912.94.076 1.87.018 2.788-.189 1.553-.35 2.925-1.056 4.146-2.067a.333.333 0 0 0 .137-.289c-.004-1.572-.004-3.145-.003-4.717v-1.179a.66.66 0 0 0-.003-.062c-.003-.046-.006-.092.006-.134.015-.049-.012-.077-.037-.104-.021-.022-.042-.044-.039-.077.007-.054-.03-.062-.073-.062h-6.556l-.038.001c-.026.001-.052.002-.077-.001-.066-.007-.087.026-.083.087a.657.657 0 0 1 .001.077l-.001.038V17.839l-.001.074c-.001.063-.002.096.014.112s.052.017.125.016H19.772c.072-.001.107-.001.124.016.016.016.015.048.014.11l-.001.078v.679c0 .308 0 .311-.279.445-.818.391-1.681.503-2.573.391-.991-.123-1.784-.591-2.365-1.401-.378-.527-.585-1.122-.662-1.763-.097-.818.002-1.605.373-2.348.448-.892 1.125-1.533 2.098-1.827.682-.207 1.373-.153 2.056-.003.619.135 1.159.437 1.657.816.182.138.359.281.539.427zm18.346-2.98c-1.528-1.39-3.348-2.052-5.229-2.066-.869.002-1.518.072-2.207.251-1.998.521-3.563 1.638-4.602 3.422-1.067 1.83-1.283 3.793-.687 5.812.667 2.257 2.089 3.9 4.29 4.815 1.69.701 3.44.795 5.206.332 2.051-.537 3.624-1.725 4.654-3.578.869-1.562 1.102-3.238.778-4.987-.291-1.572-1.017-2.919-2.203-4zm-8.437 3.528c.666-1.227 1.729-1.815 2.762-1.838 2.094-.005 3.464 1.173 3.837 2.806.226.984.125 1.94-.358 2.834-.57 1.05-1.458 1.661-2.654 1.797-1.156.133-2.165-.194-2.99-1.025a3.579 3.579 0 0 1-.983-1.914c-.172-.928-.066-1.827.386-2.66z"/>
    </symbol>
    <symbol id="javascript" viewBox="0 0 32 32">
      <path fill="#f7df1e" style="fill:var(--color3, #f7df1e)" d="M0 0h32v32H0V0z"/>
      <path style="fill:var(--color4, #000)" d="m8.414 26.741 2.449-1.482c.473.838.902 1.546 1.933 1.546.988 0 1.611-.387 1.611-1.89V14.69h3.007v10.267c0 3.115-1.826 4.532-4.489 4.532-2.406 0-3.802-1.246-4.511-2.75zm10.634-.322 2.448-1.418c.645 1.053 1.482 1.826 2.964 1.826 1.246 0 2.041-.623 2.041-1.482 0-1.031-.816-1.396-2.191-1.997l-.752-.323c-2.17-.923-3.609-2.083-3.609-4.532 0-2.256 1.718-3.974 4.404-3.974 1.912 0 3.287.666 4.274 2.406l-2.341 1.504c-.516-.924-1.074-1.289-1.933-1.289-.881 0-1.439.558-1.439 1.289 0 .902.558 1.268 1.847 1.826l.752.322c2.556 1.096 3.995 2.212 3.995 4.726 0 2.707-2.127 4.189-4.983 4.189-2.792 0-4.597-1.332-5.477-3.072z"/>
    </symbol>
    <symbol id="icon-heart-outline" viewBox="0 0 35 32">
      <path fill="none" opacity="0.5" stroke="#f8f8f8" stroke-width="3.3684" stroke-miterlimit="4" stroke-linecap="round" stroke-linejoin="round" style="stroke: var(--color1, #f8f8f8)" d="M17.112 4.985c-3.087-3.609-8.234-4.579-12.101-1.275s-4.412 8.829-1.375 12.737c2.525 3.249 10.167 10.103 12.672 12.321 0.28 0.248 0.42 0.372 0.584 0.421 0.143 0.042 0.299 0.042 0.441 0 0.164-0.049 0.303-0.173 0.584-0.421 2.505-2.218 10.147-9.071 12.672-12.321 3.037-3.908 2.559-9.468-1.375-12.737s-9.015-2.334-12.101 1.275z"></path>
    </symbol>
    <symbol id="icon-heart-filled" viewBox="0 0 36 32">
      <path fill="#f8f8f8" style="fill: var(--color1, #f8f8f8)" d="M17.243 3.685c-3.45-4.033-9.203-5.118-13.525-1.425s-4.931 9.868-1.537 14.236c2.822 3.632 11.363 11.291 14.163 13.77 0.313 0.277 0.47 0.416 0.652 0.471 0.159 0.047 0.334 0.047 0.493 0 0.183-0.055 0.339-0.193 0.652-0.471 2.799-2.479 11.34-10.139 14.163-13.77 3.394-4.368 2.86-10.582-1.537-14.236s-10.075-2.608-13.525 1.425z"></path>
    </symbol>
    <symbol id="icon-star" viewBox="0 0 32 32">
      <path d="M13.62 1.701c0.737-2.268 3.945-2.268 4.682 0l2.080 6.402c0.33 1.014 1.275 1.701 2.341 1.701h6.731c2.384 0 3.376 3.051 1.447 4.453l-5.446 3.957c-0.863 0.627-1.224 1.738-0.894 2.752l2.080 6.402c0.737 2.268-1.859 4.154-3.788 2.752l-5.446-3.957c-0.863-0.627-2.031-0.627-2.894 0l-5.446 3.957c-1.929 1.402-4.525-0.484-3.788-2.752l2.080-6.402c0.33-1.014-0.031-2.125-0.894-2.752l-5.446-3.957c-1.929-1.402-0.938-4.453 1.447-4.453h6.731c1.066 0 2.012-0.687 2.341-1.701l2.080-6.402z"></path>
    </symbol>
    <symbol id="icon-chef-hat" viewBox="0 0 97 83">
  <path d="M19 33H79V79H19V33Z" fill="#9BB537"/>
  <path d="M43 29.5C43 41.3741 33.3741 51 21.5 51C9.62588 51 0 41.3741 0 29.5C0 17.6259 9.62588 8 21.5 8C33.3741 8 43 17.6259 43 29.5Z" fill="#9BB537"/>
  <path d="M70 21.5C70 33.3741 60.3741 43 48.5 43C36.6259 43 27 33.3741 27 21.5C27 9.62588 36.6259 0 48.5 0C60.3741 0 70 9.62588 70 21.5Z" fill="#9BB537"/>
  <path d="M97 29.5C97 41.3741 87.3741 51 75.5 51C63.6259 51 54 41.3741 54 29.5C54 17.6259 63.6259 8 75.5 8C87.3741 8 97 17.6259 97 29.5Z" fill="#9BB537"/>
  <path d="M19 76H79V81.2807C79 82.2302 78.1605 83 77.125 83H20.875C19.8395 83 19 82.2302 19 81.2807V76Z" fill="#F8F8F8"/>
  <path d="M37 26.8705C37 25.2852 38.1193 24 39.5 24C40.8807 24 42 25.2852 42 26.8705V40.1295C42 41.7148 40.8807 43 39.5 43C38.1193 43 37 41.7148 37 40.1295V26.8705Z" fill="#F8F8F8"/>
  <path d="M45 26.8705C45 25.2852 46.567 24 48.5 24C50.433 24 52 25.2852 52 26.8705V40.1295C52 41.7148 50.433 43 48.5 43C46.567 43 45 41.7148 45 40.1295V26.8705Z" fill="#F8F8F8"/>
  <path d="M55 26.8705C55 25.2852 56.1193 24 57.5 24C58.8807 24 60 25.2852 60 26.8705V40.1295C60 41.7148 58.8807 43 57.5 43C56.1193 43 55 41.7148 55 40.1295V26.8705Z" fill="#F8F8F8"/>
  <path fill-rule="evenodd" clip-rule="evenodd" d="M73.1035 8.12123C73.8519 8.04342 74.6116 8.00354 75.3806 8.00354C85.0139 8.00354 93.1756 14.2612 95.9703 22.9072C95.2219 22.985 94.4622 23.0248 93.6931 23.0248C84.0599 23.0248 75.8982 16.7672 73.1035 8.12123Z" fill="#050505"/>
</symbol>
  </defs>
</svg>
